<?xml version="1.0" encoding="UTF-8" standalone="no"?>
<svg
   xmlns:dc="http://purl.org/dc/elements/1.1/"
   xmlns:cc="http://creativecommons.org/ns#"
   xmlns:rdf="http://www.w3.org/1999/02/22-rdf-syntax-ns#"
   xmlns:svg="http://www.w3.org/2000/svg"
   xmlns="http://www.w3.org/2000/svg"
   xmlns:sodipodi="http://sodipodi.sourceforge.net/DTD/sodipodi-0.dtd"
   xmlns:inkscape="http://www.inkscape.org/namespaces/inkscape"
   height="128"
   width="128"
   xml:space="preserve"
   version="1.1"
   id="svg8"
   sodipodi:docname="title2.svg"><metadata
   id="metadata14"><rdf:RDF><cc:Work
       rdf:about=""><dc:format>image/svg+xml</dc:format><dc:type
         rdf:resource="http://purl.org/dc/dcmitype/StillImage" /></cc:Work></rdf:RDF></metadata><defs
   id="defs12" /><sodipodi:namedview
   pagecolor="#ffffff"
   bordercolor="#666666"
   borderopacity="1"
   objecttolerance="10"
   gridtolerance="10"
   guidetolerance="10"
   inkscape:pageopacity="0"
   inkscape:pageshadow="2"
   inkscape:window-width="640"
   inkscape:window-height="480"
   id="namedview10" />
    <style
   type="text/css"
   id="style2">

        <![CDATA[
        text {
            fill: #fafaf4;
            transparent: transparent;
            font: 'roboto';
            font-family: 'roboto', sans-serif;
            font-weight: bold;
            stroke: black;
            stroke-width: 0.5;
            text-align: center;
        }
    ]]>
    </style>
    <!--
    <rect x="0" y="0" width="128" height="128" fill="red"/>
    -->
    <g
   aria-label="blackpool"
   id="text4"
   style="font-style:normal;font-variant:normal;font-weight:bold;font-stretch:normal;font-size:medium;line-height:normal;font-family:roboto, sans-serif;text-align:center;fill:#fafaf4;stroke:#000000;stroke-width:0.5"><path
     d="m 6.3632812,96.888672 q 0,1.523437 -0.6503906,2.378906 -0.6503906,0.849612 -1.8164062,0.849612 -1.03125,0 -1.6464844,-0.791018 L 2.1738281,100 H 0.65039062 V 91 H 2.34375 v 3.228516 q 0.5859375,-0.685547 1.5410156,-0.685547 1.1601563,0 1.8164063,0.855468 0.6621093,0.84961 0.6621093,2.396485 z M 4.6699219,96.765625 q 0,-0.960938 -0.3046875,-1.400391 -0.3046875,-0.445312 -0.9082031,-0.445312 -0.8085938,0 -1.1132813,0.662109 v 2.501953 q 0.3105469,0.667969 1.125,0.667969 0.8203125,0 1.078125,-0.808594 0.1230469,-0.386718 0.1230469,-1.177734 z"
     style="font-style:normal;font-variant:normal;font-weight:bold;font-stretch:normal;font-size:medium;line-height:normal;font-family:roboto, sans-serif;text-align:center;fill:#fafaf4;stroke:#000000;stroke-width:0.5"
     id="path16" /><path
     d="M 9.1933594,100 H 7.4941406 v -9 h 1.6992188 z"
     style="font-style:normal;font-variant:normal;font-weight:bold;font-stretch:normal;font-size:medium;line-height:normal;font-family:roboto, sans-serif;text-align:center;fill:#fafaf4;stroke:#000000;stroke-width:0.5"
     id="path18" /><path
     d="m 14.261719,100 q -0.117188,-0.228516 -0.169922,-0.568359 -0.615234,0.685549 -1.599609,0.685549 -0.931641,0 -1.546875,-0.539065 -0.609375,-0.539063 -0.609375,-1.359375 0,-1.007813 0.74414,-1.546875 0.75,-0.539063 2.16211,-0.544922 h 0.779296 v -0.363281 q 0,-0.439453 -0.228515,-0.703125 -0.222656,-0.263672 -0.708985,-0.263672 -0.427734,0 -0.673828,0.205078 -0.240234,0.205078 -0.240234,0.5625 h -1.693359 q 0,-0.550781 0.339843,-1.019531 0.339844,-0.46875 0.960938,-0.732422 0.621094,-0.269531 1.394531,-0.269531 1.171875,0 1.857422,0.591797 0.691406,0.585937 0.691406,1.652343 v 2.748047 q 0.0059,0.902344 0.251953,1.365235 V 100 Z m -1.400391,-1.177734 q 0.375,0 0.691406,-0.164063 0.316407,-0.169922 0.46875,-0.451172 v -1.089844 h -0.632812 q -1.271484,0 -1.353516,0.878907 l -0.0059,0.09961 q 0,0.316406 0.222656,0.521484 0.222656,0.205079 0.609375,0.205079 z"
     style="font-style:normal;font-variant:normal;font-weight:bold;font-stretch:normal;font-size:medium;line-height:normal;font-family:roboto, sans-serif;text-align:center;fill:#fafaf4;stroke:#000000;stroke-width:0.5"
     id="path20" /><path
     d="m 19.658203,98.751953 q 0.46875,0 0.761719,-0.257812 0.292969,-0.257813 0.304687,-0.685547 H 22.3125 q -0.0059,0.644531 -0.351563,1.183593 -0.345703,0.533204 -0.949218,0.832032 -0.597657,0.292971 -1.324219,0.292971 -1.359375,0 -2.144531,-0.861331 -0.785157,-0.867187 -0.785157,-2.390625 v -0.111328 q 0,-1.464844 0.779297,-2.33789 0.779297,-0.873047 2.138672,-0.873047 1.189453,0 1.904297,0.679687 0.720703,0.673828 0.732422,1.798828 h -1.587891 q -0.01172,-0.492187 -0.304687,-0.796875 -0.292969,-0.310547 -0.773438,-0.310547 -0.591797,0 -0.896484,0.433594 -0.298828,0.427735 -0.298828,1.394531 v 0.175782 q 0,0.978515 0.298828,1.40625 0.298828,0.427734 0.908203,0.427734 z"
     style="font-style:normal;font-variant:normal;font-weight:bold;font-stretch:normal;font-size:medium;line-height:normal;font-family:roboto, sans-serif;text-align:center;fill:#fafaf4;stroke:#000000;stroke-width:0.5"
     id="path22" /><path
     d="m 25.582031,97.457031 -0.609375,0.609375 V 100 h -1.693359 v -9 h 1.693359 v 4.986328 l 0.328125,-0.421875 1.623047,-1.904297 h 2.033203 L 26.666016,96.302734 29.15625,100 h -1.945313 z"
     style="font-style:normal;font-variant:normal;font-weight:bold;font-stretch:normal;font-size:medium;line-height:normal;font-family:roboto, sans-serif;text-align:center;fill:#fafaf4;stroke:#000000;stroke-width:0.5"
     id="path24" /><path
     d="m 35.396484,96.888672 q 0,1.464844 -0.667968,2.349609 -0.66211,0.878909 -1.792969,0.878909 -0.960938,0 -1.552735,-0.667971 v 2.988281 h -1.693359 v -8.777344 h 1.570313 l 0.05859,0.621094 q 0.615235,-0.738281 1.605469,-0.738281 1.171875,0 1.822266,0.867187 0.65039,0.867188 0.65039,2.390625 z m -1.693359,-0.123047 q 0,-0.884766 -0.316406,-1.365234 -0.310547,-0.480469 -0.908203,-0.480469 -0.796875,0 -1.095704,0.609375 V 98.125 q 0.310547,0.626953 1.107422,0.626953 1.212891,0 1.212891,-1.986328 z"
     style="font-style:normal;font-variant:normal;font-weight:bold;font-stretch:normal;font-size:medium;line-height:normal;font-family:roboto, sans-serif;text-align:center;fill:#fafaf4;stroke:#000000;stroke-width:0.5"
     id="path26" /><path
     d="m 36.181641,96.771484 q 0,-0.943359 0.363281,-1.68164 0.363281,-0.738282 1.042969,-1.142578 0.685546,-0.404297 1.58789,-0.404297 1.283203,0 2.091797,0.785156 0.814453,0.785156 0.908203,2.132812 l 0.01172,0.433594 q 0,1.458985 -0.814453,2.34375 -0.814453,0.878909 -2.185547,0.878909 -1.371094,0 -2.191406,-0.878909 -0.814453,-0.878906 -0.814453,-2.390625 z M 37.875,96.894531 q 0,0.902344 0.339844,1.382813 0.339843,0.474609 0.972656,0.474609 0.615234,0 0.960937,-0.46875 0.345704,-0.474609 0.345704,-1.511719 0,-0.884765 -0.345704,-1.371093 -0.345703,-0.486329 -0.972656,-0.486329 -0.621094,0 -0.960937,0.486329 Q 37.875,95.880859 37.875,96.894531 Z"
     style="font-style:normal;font-variant:normal;font-weight:bold;font-stretch:normal;font-size:medium;line-height:normal;font-family:roboto, sans-serif;text-align:center;fill:#fafaf4;stroke:#000000;stroke-width:0.5"
     id="path28" /><path
     d="m 42.966797,96.771484 q 0,-0.943359 0.363281,-1.68164 0.363281,-0.738282 1.042969,-1.142578 0.685547,-0.404297 1.58789,-0.404297 1.283204,0 2.091797,0.785156 0.814453,0.785156 0.908203,2.132812 l 0.01172,0.433594 q 0,1.458985 -0.814453,2.34375 -0.814453,0.878909 -2.185547,0.878909 -1.371094,0 -2.191406,-0.878909 -0.814453,-0.878906 -0.814453,-2.390625 z m 1.693359,0.123047 q 0,0.902344 0.339844,1.382813 0.339844,0.474609 0.972656,0.474609 0.615235,0 0.960938,-0.46875 0.345703,-0.474609 0.345703,-1.511719 0,-0.884765 -0.345703,-1.371093 -0.345703,-0.486329 -0.972657,-0.486329 -0.621093,0 -0.960937,0.486329 -0.339844,0.480468 -0.339844,1.49414 z"
     style="font-style:normal;font-variant:normal;font-weight:bold;font-stretch:normal;font-size:medium;line-height:normal;font-family:roboto, sans-serif;text-align:center;fill:#fafaf4;stroke:#000000;stroke-width:0.5"
     id="path30" /><path
     d="m 51.802734,100 h -1.699218 v -9 h 1.699218 z"
     style="font-style:normal;font-variant:normal;font-weight:bold;font-stretch:normal;font-size:medium;line-height:normal;font-family:roboto, sans-serif;text-align:center;fill:#fafaf4;stroke:#000000;stroke-width:0.5"
     id="path32" /></g>
    <g
   aria-label="(legit)"
   id="text6"
   style="font-style:normal;font-variant:normal;font-weight:bold;font-stretch:normal;font-size:medium;line-height:normal;font-family:roboto, sans-serif;text-align:center;fill:#fafaf4;stroke:#000000;stroke-width:0.5"><path
     d="m 20.726562,116.53125 q 0,-1.3418 0.357422,-2.55469 0.357422,-1.21289 1.054688,-2.14453 0.697265,-0.9375 1.511719,-1.30078 l 0.328125,0.91406 q -0.855469,0.63282 -1.335938,1.95703 -0.480469,1.32422 -0.480469,3.09375 v 0.18164 q 0,1.7754 0.47461,3.10547 0.474609,1.33008 1.341797,1.98633 l -0.328125,0.89649 q -0.796875,-0.35743 -1.488282,-1.26563 -0.685547,-0.90234 -1.048828,-2.08594 Q 20.75,118.13086 20.726562,116.8418 Z"
     style="font-style:normal;font-variant:normal;font-weight:bold;font-stretch:normal;font-size:medium;line-height:normal;font-family:roboto, sans-serif;text-align:center;fill:#fafaf4;stroke:#000000;stroke-width:0.5"
     id="path35" /><path
     d="m 26.650391,120 h -1.699219 v -9 h 1.699219 z"
     style="font-style:normal;font-variant:normal;font-weight:bold;font-stretch:normal;font-size:medium;line-height:normal;font-family:roboto, sans-serif;text-align:center;fill:#fafaf4;stroke:#000000;stroke-width:0.5"
     id="path37" /><path
     d="m 30.962891,120.11719 q -1.394532,0 -2.273438,-0.85547 -0.873047,-0.85547 -0.873047,-2.2793 v -0.16406 q 0,-0.95508 0.369141,-1.70508 0.36914,-0.75586 1.042969,-1.16015 0.679687,-0.41016 1.546875,-0.41016 1.300781,0 2.044921,0.82031 0.75,0.82031 0.75,2.32617 v 0.69141 h -4.037109 q 0.08203,0.62109 0.492188,0.99609 0.416015,0.375 1.048828,0.375 0.978515,0 1.529297,-0.70898 l 0.832031,0.93164 q -0.38086,0.53906 -1.03125,0.84375 -0.650391,0.29883 -1.441406,0.29883 z m -0.19336,-5.20313 q -0.503906,0 -0.820312,0.33985 -0.310547,0.33984 -0.398438,0.97265 h 2.355469 v -0.13476 q -0.01172,-0.5625 -0.304688,-0.86719 -0.292968,-0.31055 -0.832031,-0.31055 z"
     style="font-style:normal;font-variant:normal;font-weight:bold;font-stretch:normal;font-size:medium;line-height:normal;font-family:roboto, sans-serif;text-align:center;fill:#fafaf4;stroke:#000000;stroke-width:0.5"
     id="path39" /><path
     d="m 34.285156,116.7832 q 0,-1.45898 0.691406,-2.34961 0.697266,-0.89062 1.875,-0.89062 1.042969,0 1.623047,0.71484 l 0.07031,-0.59765 h 1.535156 v 6.1289 q 0,0.83203 -0.380859,1.44727 -0.375,0.61523 -1.060547,0.9375 -0.685547,0.32226 -1.605469,0.32226 -0.697266,0 -1.359375,-0.28125 -0.662109,-0.27539 -1.001953,-0.71484 l 0.75,-1.03125 q 0.632812,0.70898 1.535156,0.70898 0.673828,0 1.048828,-0.36328 0.375,-0.35742 0.375,-1.01953 v -0.33984 q -0.585937,0.66211 -1.541015,0.66211 -1.142578,0 -1.851563,-0.89063 -0.703125,-0.89648 -0.703125,-2.37304 z m 1.69336,0.12305 q 0,0.86133 0.345703,1.35352 0.345703,0.48632 0.949218,0.48632 0.773438,0 1.107422,-0.58007 V 115.5 q -0.339843,-0.58008 -1.095703,-0.58008 -0.609375,0 -0.960937,0.49805 -0.345703,0.49805 -0.345703,1.48828 z"
     style="font-style:normal;font-variant:normal;font-weight:bold;font-stretch:normal;font-size:medium;line-height:normal;font-family:roboto, sans-serif;text-align:center;fill:#fafaf4;stroke:#000000;stroke-width:0.5"
     id="path41" /><path
     d="M 43.167969,120 H 41.46875 v -6.33984 h 1.699219 z m -1.798828,-7.98047 q 0,-0.38086 0.251953,-0.62695 0.257812,-0.2461 0.697265,-0.2461 0.433594,0 0.691407,0.2461 0.257812,0.24609 0.257812,0.62695 0,0.38672 -0.263672,0.63281 -0.257812,0.2461 -0.685547,0.2461 -0.427734,0 -0.691406,-0.2461 -0.257812,-0.24609 -0.257812,-0.63281 z"
     style="font-style:normal;font-variant:normal;font-weight:bold;font-stretch:normal;font-size:medium;line-height:normal;font-family:roboto, sans-serif;text-align:center;fill:#fafaf4;stroke:#000000;stroke-width:0.5"
     id="path43" /><path
     d="m 46.589844,112.10156 v 1.5586 h 1.083984 v 1.24218 h -1.083984 v 3.16407 q 0,0.35156 0.134765,0.5039 0.134766,0.15235 0.515625,0.15235 0.28125,0 0.498047,-0.041 v 1.2832 q -0.498047,0.15235 -1.02539,0.15235 -1.78125,0 -1.816407,-1.79883 v -3.41602 h -0.925781 v -1.24218 h 0.925781 v -1.5586 z"
     style="font-style:normal;font-variant:normal;font-weight:bold;font-stretch:normal;font-size:medium;line-height:normal;font-family:roboto, sans-serif;text-align:center;fill:#fafaf4;stroke:#000000;stroke-width:0.5"
     id="path45" /><path
     d="m 51.535156,116.66602 q 0,1.32421 -0.380859,2.54882 -0.38086,1.22461 -1.095703,2.16211 -0.714844,0.9375 -1.529297,1.28907 l -0.328125,-0.89649 q 0.832031,-0.62695 1.3125,-1.93359 0.480469,-1.30664 0.498047,-3.00586 v -0.31055 q 0,-1.75195 -0.480469,-3.08789 -0.474609,-1.33594 -1.330078,-2.00391 l 0.328125,-0.89648 q 0.796875,0.3457 1.5,1.25391 0.708984,0.9082 1.095703,2.11523 0.392578,1.20703 0.410156,2.50195 z"
     style="font-style:normal;font-variant:normal;font-weight:bold;font-stretch:normal;font-size:medium;line-height:normal;font-family:roboto, sans-serif;text-align:center;fill:#fafaf4;stroke:#000000;stroke-width:0.5"
     id="path47" /></g>
</svg>
